<svg width="1600" height="520" viewBox="0 0 1600 520" fill="none" xmlns="http://www.w3.org/2000/svg">
  <rect width="1600" height="520" rx="36" fill="#08101F"/>
  <rect x="18" y="18" width="1564" height="484" rx="24" stroke="url(#paint0_linear)" stroke-opacity="0.35" stroke-width="2"/>
  <ellipse cx="1280" cy="108" rx="236" ry="146" fill="#15315A" fill-opacity="0.42"/>
  <ellipse cx="1370" cy="432" rx="268" ry="164" fill="#0F4C5C" fill-opacity="0.24"/>
  <ellipse cx="308" cy="108" rx="196" ry="128" fill="#332044" fill-opacity="0.28"/>

  <g filter="url(#filter0_d)">
    <rect x="84" y="92" width="200" height="200" rx="48" fill="#0D1528"/>
    <rect x="84" y="92" width="200" height="200" rx="48" stroke="url(#paint1_linear)" stroke-width="2"/>
    <circle cx="184" cy="192" r="66" fill="#121933" stroke="#F3B45A" stroke-width="4"/>
    <path d="M138 214L164 160L186 204L210 146L236 214" stroke="#F3B45A" stroke-width="10" stroke-linecap="round" stroke-linejoin="round"/>
    <circle cx="138" cy="214" r="7" fill="#F3B45A"/>
    <circle cx="164" cy="160" r="7" fill="#F3B45A"/>
    <circle cx="186" cy="204" r="7" fill="#F3B45A"/>
    <circle cx="210" cy="146" r="7" fill="#F3B45A"/>
    <circle cx="236" cy="214" r="7" fill="#F3B45A"/>
    <path d="M142 244C158 258 172 264 184 264C196 264 210 258 226 244" stroke="#67E8F9" stroke-width="5" stroke-linecap="round" stroke-opacity="0.9"/>
  </g>

  <text x="344" y="168" fill="#F8FAFC" font-family="'Segoe UI', Arial, sans-serif" font-size="56" font-weight="700">
    MASA Epistemic Orchestrator
  </text>
  <text x="344" y="220" fill="#CBD5E1" font-family="'Segoe UI', Arial, sans-serif" font-size="25" font-weight="500">
    Proof-first orchestration for scientific agents.
  </text>
  <text x="344" y="270" fill="#94A3B8" font-family="'Segoe UI', Arial, sans-serif" font-size="22">
    MCP retrieval, provenance-locked citations, deterministic fallback, and operator escalation.
  </text>

  <g opacity="0.95">
    <rect x="344" y="324" width="288" height="58" rx="18" fill="#10192E"/>
    <rect x="344" y="324" width="288" height="58" rx="18" stroke="#253150"/>
    <text x="374" y="360" fill="#F3B45A" font-family="'Segoe UI', Arial, sans-serif" font-size="20" font-weight="700">
      EPISTEMIC WALL
    </text>

    <rect x="648" y="324" width="288" height="58" rx="18" fill="#10192E"/>
    <rect x="648" y="324" width="288" height="58" rx="18" stroke="#253150"/>
    <text x="678" y="360" fill="#67E8F9" font-family="'Segoe UI', Arial, sans-serif" font-size="20" font-weight="700">
      DETERMINISTIC RETRY
    </text>

    <rect x="952" y="324" width="288" height="58" rx="18" fill="#10192E"/>
    <rect x="952" y="324" width="288" height="58" rx="18" stroke="#253150"/>
    <text x="982" y="360" fill="#E4E7EC" font-family="'Segoe UI', Arial, sans-serif" font-size="20" font-weight="700">
      OPERATOR TRACE
    </text>
  </g>

  <defs>
    <filter id="filter0_d" x="44" y="64" width="280" height="280" filterUnits="userSpaceOnUse" color-interpolation-filters="sRGB">
      <feFlood flood-opacity="0" result="BackgroundImageFix"/>
      <feColorMatrix in="SourceAlpha" type="matrix" values="0 0 0 0 0 0 0 0 0 0 0 0 0 0 0 0 0 0 127 0" result="hardAlpha"/>
      <feOffset dy="12"/>
      <feGaussianBlur stdDeviation="20"/>
      <feComposite in2="hardAlpha" operator="out"/>
      <feColorMatrix type="matrix" values="0 0 0 0 0.0117647 0 0 0 0 0.0470588 0 0 0 0 0.121569 0 0 0 0.45 0"/>
      <feBlend mode="normal" in2="BackgroundImageFix" result="effect1_dropShadow"/>
      <feBlend mode="normal" in="SourceGraphic" in2="effect1_dropShadow" result="shape"/>
    </filter>
    <linearGradient id="paint0_linear" x1="116" y1="42" x2="1470" y2="478" gradientUnits="userSpaceOnUse">
      <stop stop-color="#F3B45A"/>
      <stop offset="0.55" stop-color="#67E8F9"/>
      <stop offset="1" stop-color="#A855F7"/>
    </linearGradient>
    <linearGradient id="paint1_linear" x1="104" y1="104" x2="264" y2="284" gradientUnits="userSpaceOnUse">
      <stop stop-color="#F3B45A"/>
      <stop offset="1" stop-color="#67E8F9"/>
    </linearGradient>
  </defs>
</svg>
